<svg xmlns="http://www.w3.org/2000/svg" viewBox="0 0 500 500">
  <g id="freepik--background-complete--inject-720">
    <rect y="382.4" width="500" height="0.75" style="fill: #fff" />
    <rect
      x="416.78"
      y="398.49"
      width="33.12"
      height="0.25"
      style="fill: #ebebeb"
    />
    <rect
      x="322.53"
      y="401.21"
      width="8.69"
      height="0.25"
      style="fill: #ebebeb"
    />
    <rect
      x="396.59"
      y="389.21"
      width="19.19"
      height="0.25"
      style="fill: #ebebeb"
    />
    <rect
      x="52.46"
      y="390.89"
      width="43.19"
      height="0.25"
      style="fill: #ebebeb"
    />
    <rect
      x="104.56"
      y="390.89"
      width="6.33"
      height="0.25"
      style="fill: #ebebeb"
    />
    <rect
      x="131.47"
      y="395.11"
      width="93.68"
      height="0.25"
      style="fill: #ebebeb"
    />
  </g>
  <g id="freepik--Shadow--inject-720">
    <ellipse
      id="freepik--path--inject-720"
      cx="250"
      cy="416.24"
      rx="193.89"
      ry="11.32"
      style="fill: #ffffff8f"
    />
  </g>
  <g id="freepik--Backpack--inject-720">
    <path
      d="M170.23,412.56a27.47,27.47,0,0,1-5,.55c-18.06.67-23-4-23-4L88.91,323.33S84.76,311,92.3,306.27a11.57,11.57,0,0,1,3.89-1.48c12.67-2.5,15.76,14,15.76,14l50,85.52S178.4,410.56,170.23,412.56Z"
      style="fill: #373737"
    />
    <path
      d="M170.23,412.56a27.47,27.47,0,0,1-5,.55c-18.06.67-23-4-23-4L88.91,323.33S84.76,311,92.3,306.27a11.57,11.57,0,0,1,3.89-1.48c12.67-2.5,15.76,14,15.76,14l50,85.52S178.4,410.56,170.23,412.56Z"
      style="fill: #fff; opacity: 0.4; isolation: isolate"
    />
    <path
      d="M170.23,412.56a27.47,27.47,0,0,1-5,.55c-18.06.67-23-4-23-4L88.91,323.33S84.76,311,92.3,306.27a12.1,12.1,0,0,1,1.87-.52c12.67-2.49,15.76,14,15.76,14l50,85.53S172.41,410,170.23,412.56Z"
      style="fill: #373737"
    />
    <path
      d="M91.34,331.88a10,10,0,0,0-2.91,1,3.93,3.93,0,0,0-1.52,5.32A4.11,4.11,0,0,0,92,340.4c1.67-.55,2-.7,2-.7Z"
      style="fill: #373737"
    />
    <path
      d="M91.34,331.88a10,10,0,0,0-2.91,1,3.93,3.93,0,0,0-1.52,5.32A4.11,4.11,0,0,0,92,340.4c1.67-.55,2-.7,2-.7Z"
      style="fill: #fff; opacity: 0.4; isolation: isolate"
    />
    <path
      d="M95.55,334.37a3.67,3.67,0,1,1-5.07-2.22A3.94,3.94,0,0,1,95.55,334.37Z"
      style="fill: #fff"
    />
    <path
      d="M95.11,334.58a2.2,2.2,0,1,1-3-1.34A2.34,2.34,0,0,1,95.11,334.58Z"
      style="fill: #373737"
    />
    <path
      d="M96.32,329.74,99.45,335a.47.47,0,0,0,.53.21l6.48-1.66a.47.47,0,0,0,.3-.69l-3.25-5.71a.48.48,0,0,0-.56-.21l-6.37,2.11A.47.47,0,0,0,96.32,329.74Z"
      style="fill: #fff; opacity: 0.2; isolation: isolate"
    />
    <circle cx="102.98" cy="327.5" r="0.27" style="fill: #373737" />
    <circle cx="96.88" cy="329.51" r="0.27" style="fill: #373737" />
    <path
      d="M100.11,334.54a.27.27,0,1,1-.27-.27A.27.27,0,0,1,100.11,334.54Z"
      style="fill: #373737"
    />
    <circle cx="105.78" cy="333.19" r="0.27" style="fill: #373737" />
    <polygon
      points="93.43 336.23 108.87 332.03 108.67 330.56 102.6 331.12 101.58 329.24 98.41 330.26 97.08 332.45 93.19 334.66 92.9 335.44 93.43 336.23"
      style="fill: #373737"
    />
    <polygon
      points="93.43 336.23 108.87 332.03 108.67 330.56 102.6 331.12 101.58 329.24 98.41 330.26 97.08 332.45 93.19 334.66 92.9 335.44 93.43 336.23"
      style="fill: #fff; opacity: 0.2; isolation: isolate"
    />
    <polygon
      points="92.9 335.44 107.61 331.69 107.95 330.97 101.71 331.31 101.58 329.24 98.41 330.26 96.94 332.61 93.19 334.66 92.9 335.44"
      style="fill: #fff; opacity: 0.2; isolation: isolate"
    />
    <path
      d="M106.88,327.5a9.74,9.74,0,0,0-2.91,1,3.93,3.93,0,0,0-1.52,5.32,4.1,4.1,0,0,0,5.07,2.23c1.67-.55,2-.7,2-.7Z"
      style="fill: #373737"
    />
    <path
      d="M106.88,327.5a9.74,9.74,0,0,0-2.91,1,3.93,3.93,0,0,0-1.52,5.32,4.1,4.1,0,0,0,5.07,2.23c1.67-.55,2-.7,2-.7Z"
      style="fill: #fff; opacity: 0.4; isolation: isolate"
    />
    <path
      d="M111.08,330a3.67,3.67,0,1,1-5.07-2.23A3.94,3.94,0,0,1,111.08,330Z"
      style="fill: #fff"
    />
    <path
      d="M110.65,330.19a2.2,2.2,0,1,1-3-1.33A2.36,2.36,0,0,1,110.65,330.19Z"
      style="fill: #373737"
    />
    <path
      d="M129.72,394.91a10.13,10.13,0,0,0-2.9,1,3.94,3.94,0,0,0-1.52,5.33,4.1,4.1,0,0,0,5.07,2.22c1.66-.55,2-.7,2-.7Z"
      style="fill: #373737"
    />
    <path
      d="M129.72,394.91a10.13,10.13,0,0,0-2.9,1,3.94,3.94,0,0,0-1.52,5.33,4.1,4.1,0,0,0,5.07,2.22c1.66-.55,2-.7,2-.7Z"
      style="fill: #fff; opacity: 0.4; isolation: isolate"
    />
    <ellipse
      cx="130.64"
      cy="398.95"
      rx="3.64"
      ry="4.17"
      transform="translate(-157.37 93.54) rotate(-25.19)"
      style="fill: #fff"
    />
    <path
      d="M133.49,397.6a2.2,2.2,0,1,1-3-1.33A2.36,2.36,0,0,1,133.49,397.6Z"
      style="fill: #373737"
    />
    <path
      d="M134.71,392.77l3.13,5.25a.48.48,0,0,0,.52.22l6.49-1.67a.47.47,0,0,0,.29-.69l-3.25-5.7a.46.46,0,0,0-.56-.21L135,392.08A.47.47,0,0,0,134.71,392.77Z"
      style="fill: #fff; opacity: 0.2; isolation: isolate"
    />
    <circle cx="141.36" cy="390.52" r="0.27" style="fill: #373737" />
    <circle cx="135.26" cy="392.54" r="0.27" style="fill: #373737" />
    <path
      d="M138.5,397.57a.28.28,0,0,1-.55,0,.28.28,0,1,1,.55,0Z"
      style="fill: #373737"
    />
    <path
      d="M144.44,396.22a.27.27,0,1,1-.27-.28A.27.27,0,0,1,144.44,396.22Z"
      style="fill: #373737"
    />
    <polygon
      points="131.82 399.25 147.25 395.06 147.06 393.59 140.99 394.14 139.96 392.26 136.79 393.29 135.47 395.48 131.58 397.69 131.29 398.47 131.82 399.25"
      style="fill: #373737"
    />
    <polygon
      points="131.82 399.25 147.25 395.06 147.06 393.59 140.99 394.14 139.96 392.26 136.79 393.29 135.47 395.48 131.58 397.69 131.29 398.47 131.82 399.25"
      style="fill: #fff; opacity: 0.2; isolation: isolate"
    />
    <polygon
      points="131.29 398.47 145.99 394.72 146.33 394 140.1 394.34 139.96 392.26 136.79 393.29 135.33 395.64 131.58 397.69 131.29 398.47"
      style="fill: #fff; opacity: 0.2; isolation: isolate"
    />
    <path
      d="M145.26,390.52a10,10,0,0,0-2.91,1,3.93,3.93,0,0,0-1.51,5.32,4.1,4.1,0,0,0,5.07,2.23c1.66-.55,2-.7,2-.7Z"
      style="fill: #373737"
    />
    <path
      d="M145.26,390.52a10,10,0,0,0-2.91,1,3.93,3.93,0,0,0-1.51,5.32,4.1,4.1,0,0,0,5.07,2.23c1.66-.55,2-.7,2-.7Z"
      style="fill: #fff; opacity: 0.4; isolation: isolate"
    />
    <path
      d="M149.47,393a3.67,3.67,0,1,1-5.07-2.22A3.94,3.94,0,0,1,149.47,393Z"
      style="fill: #fff"
    />
    <path
      d="M149,393.22a2.2,2.2,0,1,1-3-1.33A2.34,2.34,0,0,1,149,393.22Z"
      style="fill: #373737"
    />
    <path
      d="M83,340.18s-2.25-6.14,6.75-7.57,13.36,7.57,13.36,7.57h-1.3s-4.09-5.93-9.81-5.53-4.91,4.71-4.91,4.71Z"
      style="fill: #373737"
    />
    <path
      d="M85.7,344.26a91.84,91.84,0,0,0-26.44,30.67C49,394.55,43.52,420.06,75.61,416.14l.41-2s-11.47,1.15-17.17-1.91-4.91-26.88,11.86-42.82S85.7,344.26,85.7,344.26Z"
      style="fill: #373737"
    />
    <path
      d="M92,337.83s-19-1.95-23.72,4.8,1.63,69.54,4.7,73.51,30.13,2.8,30.13,2.8Z"
      style="fill: #efefef"
    />
    <path
      d="M92,337.83s-19-1.95-23.72,4.8,1.63,69.54,4.7,73.51,30.13,2.8,30.13,2.8Z"
      style="opacity: 0.2; isolation: isolate"
    />
    <path
      d="M125.52,418.94H87.45a7.69,7.69,0,0,1-7.6-6.45c-2.91-17.85-10.35-66.88-5-71.62,6.52-5.8,40.05-2.35,45.77,2.16,4.49,3.53,10.28,48.17,12.57,67.3A7.7,7.7,0,0,1,125.52,418.94Z"
      style="fill: #efefef"
    />
    <path
      d="M123.55,412.23H92.1a4.38,4.38,0,0,1-4.33-3.8l-2.69-19.75a4.38,4.38,0,0,1,4.34-5h31.44a4.38,4.38,0,0,1,4.34,3.78l2.69,19.76A4.38,4.38,0,0,1,123.55,412.23Z"
      style="opacity: 0.2; isolation: isolate"
    />
    <path
      d="M123.55,412.23H95.21a4.37,4.37,0,0,1-4.33-3.8l-2.7-19.75a4.38,4.38,0,0,1,4.34-5h28.34a4.38,4.38,0,0,1,4.34,3.78l2.69,19.76A4.38,4.38,0,0,1,123.55,412.23Z"
      style="fill: #1d4ed8"
    />
    <path
      d="M116.23,371.66H89a3.27,3.27,0,0,1-3.17-4.07c1.44-5.69,5.41-15.3,15.78-15.15.46,0,.9,0,1.34.08,9.17.86,14.08,9.21,16.33,14.59A3.28,3.28,0,0,1,116.23,371.66Z"
      style="opacity: 0.2; isolation: isolate"
    />
    <path
      d="M116.23,371.66H92.07a3.27,3.27,0,0,1-3.17-4.07c1.35-5.36,4.94-14.17,14-15.07,9.17.86,14.08,9.21,16.33,14.59A3.28,3.28,0,0,1,116.23,371.66Z"
      style="fill: #1d4ed8"
    />
    <path
      d="M116.23,371.66H92.07a3.27,3.27,0,0,1-3.17-4.07c1.35-5.36,4.94-14.17,14-15.07,9.17.86,14.08,9.21,16.33,14.59A3.28,3.28,0,0,1,116.23,371.66Z"
      style="fill: #fff; opacity: 0.2"
    />
    <path
      d="M123.55,412.23H95.21a4.37,4.37,0,0,1-4.33-3.8l-2.7-19.75a4.38,4.38,0,0,1,4.34-5h28.34a4.38,4.38,0,0,1,4.34,3.78l2.69,19.76A4.38,4.38,0,0,1,123.55,412.23Z"
      style="fill: #fff; opacity: 0.2"
    />
  </g>
  <g id="freepik--Device--inject-720">
    <rect
      x="273.37"
      y="106.85"
      width="173.6"
      height="312.25"
      rx="10.4"
      style="fill: #373737"
    />
    <path
      d="M441.12,117.31V408.08a4.26,4.26,0,0,1-4.32,4.25H283.08a3.81,3.81,0,0,1-3.85-3.9V117a3.44,3.44,0,0,1,3.3-3.57H321a2.72,2.72,0,0,1,2.48,1.73L325,119a2.7,2.7,0,0,0,2.47,1.71h65.43a2.67,2.67,0,0,0,2.47-1.68l1.59-3.94a2.73,2.73,0,0,1,2.48-1.74h37.87A3.89,3.89,0,0,1,441.12,117.31Z"
      style="fill: #efefef77"
    />
    <rect
      x="279.23"
      y="131.56"
      width="161.89"
      height="249.5"
      style="fill: #fff"
    />
    <rect
      x="297.07"
      y="122.45"
      width="2"
      height="2.67"
      transform="translate(596.14 247.56) rotate(180)"
      style="fill: #fff; opacity: 0.6000000000000001; isolation: isolate"
    />
    <rect
      x="293.81"
      y="121.56"
      width="2"
      height="3.56"
      transform="translate(589.62 246.67) rotate(180)"
      style="fill: #fff; opacity: 0.6000000000000001; isolation: isolate"
    />
    <rect
      x="290.55"
      y="120.67"
      width="2"
      height="4.44"
      transform="translate(583.1 245.78) rotate(180)"
      style="fill: #fff; opacity: 0.6000000000000001; isolation: isolate"
    />
    <rect
      x="287.29"
      y="119.78"
      width="2"
      height="5.33"
      transform="translate(576.59 244.89) rotate(180)"
      style="fill: #fff; opacity: 0.6000000000000001; isolation: isolate"
    />
    <rect
      x="421.61"
      y="121.47"
      width="1.19"
      height="2.67"
      style="fill: #fff; opacity: 0.6000000000000001; isolation: isolate"
    />
    <rect
      x="423.61"
      y="120.5"
      width="9.44"
      height="4.61"
      transform="translate(856.66 245.61) rotate(180)"
      style="fill: #fff; opacity: 0.6000000000000001; isolation: isolate"
    />
    <polygon
      points="379.91 178.79 389.33 170.18 388.93 179.19 379.91 178.79"
      style="fill: #1d4ed8"
    />
    <polygon
      points="340.43 223.53 331.02 232.14 331.42 223.13 340.43 223.53"
      style="fill: #1d4ed8"
    />
    <path
      d="M322.67,211.12a38.8,38.8,0,0,1,64.53-37.8l-3.84,4A33.29,33.29,0,0,0,328,209.7Z"
      style="fill: #1d4ed8"
    />
    <path
      d="M333.25,229.11l3.82-4a33.29,33.29,0,0,0,55.27-32.51l5.34-1.41a38.81,38.81,0,0,1-64.43,37.9Z"
      style="fill: #1d4ed8"
    />
    <path
      d="M414.74,266.84H305.61a5.78,5.78,0,1,0,0,11.55H414.74a5.78,5.78,0,1,0,0-11.55Z"
      style="fill: #1d4ed8; opacity: 0.30000000000000004"
    />
    <path
      d="M395.56,267.86H305.71a4.76,4.76,0,1,0,0,9.51h89.85a4.76,4.76,0,0,0,0-9.51Z"
      style="fill: #1d4ed8"
    />
    <text
      transform="translate(344.34 289.06)"
      style="
        font-size: 6.623010158538818px;
        fill: #1d4ed8;
        font-family: Montserrat-Regular, Montserrat;
      "
    >
      S
      <tspan x="4.12" y="0" style="letter-spacing: 0.00597172287271952em">
        y
      </tspan>
      <tspan x="7.68" y="0">nc 80%</tspan>
    </text>
    <path
      d="M333.07,329.32v25.53a2.89,2.89,0,0,1-2.46,2.85,3,3,0,0,1-.43,0H297.39a2.88,2.88,0,0,1-2.89-2.88V329.32a2.81,2.81,0,0,1,.29-1.26,2.88,2.88,0,0,1,2.6-1.64h12.85a2.92,2.92,0,0,0,1.7-.55,2.88,2.88,0,0,0,1.05-1.43,2.89,2.89,0,0,1,2.75-2h6.84a2.88,2.88,0,0,1,2.75,2,2.9,2.9,0,0,0,2.75,2h2.1A2.9,2.9,0,0,1,333.07,329.32Z"
      style="fill: #1d4ed8"
    />
    <path
      d="M330.61,330.53V357.7l0,0H297.39a2.88,2.88,0,0,1-2.89-2.88V329.32a2.81,2.81,0,0,1,.29-1.26h33.36A2.46,2.46,0,0,1,330.61,330.53Z"
      style="fill: #fff; opacity: 0.30000000000000004; isolation: isolate"
    />
    <path
      d="M379.46,329.32v25.53A2.89,2.89,0,0,1,377,357.7a3,3,0,0,1-.43,0H343.78a2.88,2.88,0,0,1-2.89-2.88V329.32a2.81,2.81,0,0,1,.29-1.26,2.88,2.88,0,0,1,2.6-1.64h12.85a2.92,2.92,0,0,0,1.7-.55,2.88,2.88,0,0,0,1.05-1.43,2.89,2.89,0,0,1,2.75-2H369a2.89,2.89,0,0,1,2.75,2,2.9,2.9,0,0,0,2.75,2h2.1A2.9,2.9,0,0,1,379.46,329.32Z"
      style="fill: #1d4ed8"
    />
    <path
      d="M377,330.53V357.7l0,0H343.78a2.88,2.88,0,0,1-2.89-2.88V329.32a2.81,2.81,0,0,1,.29-1.26h33.35A2.46,2.46,0,0,1,377,330.53Z"
      style="fill: #fff; opacity: 0.30000000000000004; isolation: isolate"
    />
    <path
      d="M425.85,329.32v25.53a2.89,2.89,0,0,1-2.46,2.85,3.11,3.11,0,0,1-.43,0H390.17a2.88,2.88,0,0,1-2.89-2.88V329.32a2.81,2.81,0,0,1,.29-1.26,2.88,2.88,0,0,1,2.6-1.64H403a2.92,2.92,0,0,0,1.7-.55,2.88,2.88,0,0,0,1-1.43,2.89,2.89,0,0,1,2.75-2h6.84a2.89,2.89,0,0,1,2.75,2,2.9,2.9,0,0,0,2.75,2H423A2.9,2.9,0,0,1,425.85,329.32Z"
      style="fill: #1d4ed8"
    />
    <path
      d="M423.39,330.53V357.7l0,0H390.17a2.88,2.88,0,0,1-2.89-2.88V329.32a2.81,2.81,0,0,1,.29-1.26h33.35A2.46,2.46,0,0,1,423.39,330.53Z"
      style="fill: #fff; opacity: 0.30000000000000004; isolation: isolate"
    />
    <path
      d="M428.49,392.08H414.66a1,1,0,0,1,0-2h13.83a1,1,0,0,1,0,2Z"
      style="fill: #fff"
    />
    <path
      d="M428.49,397.14H414.66a1,1,0,1,1,0-2h13.83a1,1,0,0,1,0,2Z"
      style="fill: #fff"
    />
    <path
      d="M428.49,402.2H414.66a1,1,0,0,1,0-2h13.83a1,1,0,0,1,0,2Z"
      style="fill: #fff"
    />
    <path
      d="M366.4,397.14H352.57a1,1,0,0,1,0-2H366.4a1,1,0,0,1,0,2Z"
      style="fill: #fff"
    />
    <path
      d="M359.48,404.05a1,1,0,0,1-1-1V389.22a1,1,0,0,1,2,0v13.83A1,1,0,0,1,359.48,404.05Z"
      style="fill: #fff"
    />
    <path
      d="M302.92,402.67H291.86a1,1,0,0,1-1-1V390.61a1,1,0,0,1,1-1h11.06a1,1,0,0,1,1,1v11.06A1,1,0,0,1,302.92,402.67Zm-10.06-2h9.06v-9.06h-9.06Z"
      style="fill: #fff"
    />
    <path
      d="M360.15,113.78a2.23,2.23,0,1,1-2.23-2.23A2.23,2.23,0,0,1,360.15,113.78Z"
      style="fill: #fff; opacity: 0.6000000000000001; isolation: isolate"
    />
    <path
      d="M364.64,113.78a1.42,1.42,0,1,1-1.42-1.43A1.42,1.42,0,0,1,364.64,113.78Z"
      style="fill: #fff; opacity: 0.6000000000000001; isolation: isolate"
    />
  </g>
  <g id="freepik--Window--inject-720">
    <rect
      x="56.88"
      y="83.26"
      width="146.57"
      height="102.39"
      rx="3.28"
      transform="translate(260.32 268.92) rotate(180)"
      style="fill: #373737"
    />
    <rect
      x="56.88"
      y="83.26"
      width="146.57"
      height="102.39"
      rx="3.28"
      transform="translate(260.32 268.92) rotate(180)"
      style="fill: #373737; opacity: 0.4; isolation: isolate"
    />
    <rect
      x="56.88"
      y="91.53"
      width="146.57"
      height="88.11"
      transform="translate(260.32 271.17) rotate(180)"
      style="fill: #fff"
    />
    <polygon
      points="163.9 113.37 169.14 108.57 168.92 113.59 163.9 113.37"
      style="fill: #1d4ed8"
    />
    <polygon
      points="141.89 138.31 136.64 143.11 136.87 138.08 141.89 138.31"
      style="fill: #1d4ed8"
    />
    <path
      d="M132,131.39a21.63,21.63,0,0,1,36-21.07l-2.14,2.21A18.56,18.56,0,0,0,135,130.6Z"
      style="fill: #1d4ed8"
    />
    <path
      d="M137.88,141.42,140,139.2a18.55,18.55,0,0,0,30.8-18.12l3-.79a21.64,21.64,0,0,1-35.92,21.13Z"
      style="fill: #1d4ed8"
    />
    <path
      d="M179.76,156.71H126a2.85,2.85,0,0,0,0,5.69h53.74a2.85,2.85,0,1,0,0-5.69Z"
      style="fill: #1d4ed8; opacity: 0.30000000000000004"
    />
    <path
      d="M170.32,157.21H126.07a2.35,2.35,0,0,0,0,4.69h44.25a2.35,2.35,0,0,0,0-4.69Z"
      style="fill: #1d4ed8"
    />
    <rect
      x="59.85"
      y="93.81"
      width="41.4"
      height="83.58"
      style="fill: #a3ceff; opacity: 0.30000000000000004"
    />
    <path
      d="M91.78,104.9v14.66a1.65,1.65,0,0,1-1.41,1.63,1.07,1.07,0,0,1-.25,0H71.29a1.66,1.66,0,0,1-1.66-1.66V104.9a1.59,1.59,0,0,1,.17-.72,1.66,1.66,0,0,1,1.49-.94h7.38a1.69,1.69,0,0,0,1-.32,1.62,1.62,0,0,0,.6-.82A1.65,1.65,0,0,1,81.83,101h3.93a1.65,1.65,0,0,1,1.57,1.15,1.68,1.68,0,0,0,1.58,1.14h1.21A1.66,1.66,0,0,1,91.78,104.9Z"
      style="fill: #1d4ed8"
    />
    <path
      d="M90.37,105.59v15.6l0,0h-19a1.66,1.66,0,0,1-1.66-1.66V104.9a1.59,1.59,0,0,1,.17-.72H89A1.42,1.42,0,0,1,90.37,105.59Z"
      style="fill: #fff; opacity: 0.30000000000000004; isolation: isolate"
    />
    <path
      d="M91.78,129.14v14.65a1.66,1.66,0,0,1-1.41,1.64,1.06,1.06,0,0,1-.25,0H71.29a1.66,1.66,0,0,1-1.66-1.66V129.14a1.56,1.56,0,0,1,.17-.72,1.66,1.66,0,0,1,1.49-.94h7.38a1.69,1.69,0,0,0,1-.32,1.65,1.65,0,0,0,.6-.83,1.66,1.66,0,0,1,1.58-1.14h3.93a1.65,1.65,0,0,1,1.57,1.14,1.67,1.67,0,0,0,1.58,1.15h1.21A1.66,1.66,0,0,1,91.78,129.14Z"
      style="fill: #1d4ed8"
    />
    <path
      d="M90.37,129.83v15.6l0,0h-19a1.66,1.66,0,0,1-1.66-1.66V129.14a1.56,1.56,0,0,1,.17-.72H89A1.42,1.42,0,0,1,90.37,129.83Z"
      style="fill: #fff; opacity: 0.30000000000000004; isolation: isolate"
    />
    <path
      d="M91.78,153.38V168a1.67,1.67,0,0,1-1.41,1.64l-.25,0H71.29A1.66,1.66,0,0,1,69.63,168V153.38a1.63,1.63,0,0,1,.17-.73,1.67,1.67,0,0,1,1.49-.94h7.38a1.67,1.67,0,0,0,1.58-1.14,1.65,1.65,0,0,1,1.58-1.15h3.93a1.65,1.65,0,0,1,1.57,1.15,1.68,1.68,0,0,0,1.58,1.14h1.21A1.67,1.67,0,0,1,91.78,153.38Z"
      style="fill: #1d4ed8"
    />
    <path
      d="M90.37,154.07v15.6l0,0h-19A1.66,1.66,0,0,1,69.63,168V153.38a1.63,1.63,0,0,1,.17-.73H89A1.43,1.43,0,0,1,90.37,154.07Z"
      style="fill: #fff; opacity: 0.30000000000000004; isolation: isolate"
    />
    <path
      d="M197.76,88.16a1.58,1.58,0,1,1-1.58-1.58A1.58,1.58,0,0,1,197.76,88.16Z"
      style="fill: #1d4ed8; opacity: 0.6000000000000001; isolation: isolate"
    />
    <circle
      cx="189.26"
      cy="88.16"
      r="1.58"
      style="fill: #1d4ed8; opacity: 0.6000000000000001; isolation: isolate"
    />
    <circle
      cx="182.34"
      cy="88.16"
      r="1.58"
      style="fill: #1d4ed8; opacity: 0.6000000000000001; isolation: isolate"
    />
    <path
      d="M96.41,192.48H57.56a7.1,7.1,0,0,1-7.1-7.09V170.16a.5.5,0,0,1,.5-.5.51.51,0,0,1,.5.5v15.23a6.1,6.1,0,0,0,6.1,6.09H96.41a.5.5,0,0,1,.5.5A.5.5,0,0,1,96.41,192.48Z"
      style="fill: #1d4ed8"
    />
    <path
      d="M107.32,192.55h-4.24a.5.5,0,0,1-.5-.5.5.5,0,0,1,.5-.5h4.24a.5.5,0,0,1,.5.5A.5.5,0,0,1,107.32,192.55Z"
      style="fill: #1d4ed8"
    />
    <path
      d="M51,167.23a.5.5,0,0,1-.5-.5v-2a.5.5,0,0,1,.5-.5.5.5,0,0,1,.5.5v2A.5.5,0,0,1,51,167.23Z"
      style="fill: #1d4ed8"
    />
    <path
      d="M159.62,77.26H101.26a.5.5,0,0,1-.5-.5.5.5,0,0,1,.5-.5h58.36a.5.5,0,0,1,.5.5A.5.5,0,0,1,159.62,77.26Z"
      style="fill: #1d4ed8"
    />
    <path
      d="M169.14,77.26h-4.95a.5.5,0,0,1-.5-.5.5.5,0,0,1,.5-.5h4.95a.5.5,0,0,1,.5.5A.5.5,0,0,1,169.14,77.26Z"
      style="fill: #1d4ed8"
    />
    <path
      d="M209.53,122.93a.5.5,0,0,1-.5-.5V98.67a.51.51,0,0,1,.5-.5.5.5,0,0,1,.5.5v23.76A.5.5,0,0,1,209.53,122.93Z"
      style="fill: #1d4ed8"
    />
    <path
      d="M209.53,133.05a.5.5,0,0,1-.5-.5V127.7a.51.51,0,0,1,.5-.5.5.5,0,0,1,.5.5v4.85A.5.5,0,0,1,209.53,133.05Z"
      style="fill: #1d4ed8"
    />
  </g>
  <g id="freepik--Character--inject-720">
    <g id="freepik--group--inject-720">
      <path
        d="M213.13,182.38l-13.89-18.95s-1.57-1.4-2.62-2.12-13.64,2-13.44,3.35,2.13,8.35,3.49,7.69,9.68-3.81,9.68-3.81l9.22,16.37Z"
        style="fill: #ffb573"
      />
      <path
        d="M227.94,151.49c-5.06.59-14.81,23.14-14.81,23.14L223.42,182l8.17-10.87Z"
        style="fill: #fff"
      />
      <path
        d="M231.59,171.08l-1.28,1.71L223.42,182l-5.06-3.6-5.23-3.72s9.75-22.55,14.81-23.13Z"
        style="fill: #fff; opacity: 0.8; isolation: isolate"
      />
      <path
        d="M230.31,172.79,223.42,182l-5.06-3.6a29.45,29.45,0,0,1,8.89-16.26Z"
        style="opacity: 0.2; isolation: isolate"
      />
      <path
        d="M249.72,144.39s-9.46-.76-14.59,7l3,1.48s2.5-5.23,11.21-5.6Z"
        style="fill: #1d4ed8"
      />
      <path
        d="M235.13,151.35l.11.05,2.92,1.43s2.41-5.06,10.79-5.56c.14,0,.28,0,.42,0l.35-2.85S240.26,143.64,235.13,151.35Z"
        style="opacity: 0.2; isolation: isolate"
      />
      <path
        d="M235.24,151.4l2.92,1.43s2.41-5.06,10.79-5.56l.24-2S240.47,144.63,235.24,151.4Z"
        style="opacity: 0.2; isolation: isolate"
      />
      <path
        d="M267.27,322.64l0-9.9a.72.72,0,0,1,.56-.7L275,310.4a1.2,1.2,0,0,1,1.43.92,1.22,1.22,0,0,1,0,.26c0,3.21-.22,5.54-.2,9.56,0,2.48.31,9.95.32,13.37s-3.36,3.89-3.68,2.49c-1.39-6.28-3.31-11-5.13-13A2,2,0,0,1,267.27,322.64Z"
        style="fill: #373737"
      />
      <path
        d="M223.07,231.49l-3.19,16.77s-25.27,40.9-25.26,64.51c0,28.21,73.6,11.94,73.6,11.94v-13s-44,3.78-48-.63c-4.81-5.36,24.85-46.8,24.85-46.8Z"
        style="fill: #a3ceff"
      />
      <path
        d="M194.62,312.78c0,15.55,22.38,17.58,42.45,16.27A235.43,235.43,0,0,0,266.84,325l1.38-.29v-13l-1.62.13c-5,.4-20.57,1.53-32.35,1.36-7-.1-12.67-.67-14-2.12-2.36-2.63,3.6-14,10.27-24.84h0c6.91-11.23,14.58-21.95,14.58-21.95l-9.66-14.38-12.38-18.42-3.2,16.77S194.61,289.16,194.62,312.78Z"
        style="fill: #fff; opacity: 0.2; isolation: isolate"
      />
      <path
        d="M234.25,313.21l2.82,15.84A235.43,235.43,0,0,0,266.84,325l-.24-13.15C261.6,312.25,246,313.38,234.25,313.21Z"
        style="opacity: 0.2; isolation: isolate"
      />
      <path
        d="M235.42,267.85s-4.11,9.67-4.88,18.39c6.91-11.23,14.58-21.95,14.58-21.95l-9.66-14.38-5.09-1.65S229.24,254.86,235.42,267.85Z"
        style="opacity: 0.2; isolation: isolate"
      />
      <path
        d="M242,409.82h9.9a.73.73,0,0,1,.7.56l1.6,7.26a1.19,1.19,0,0,1-.92,1.42l-.27,0c-3.2,0-5.53-.25-9.56-.25-2.47,0-9.95.26-13.37.26s-3.86-3.38-2.47-3.69c6.29-1.37,11-3.27,13-5.07A2,2,0,0,1,242,409.82Z"
        style="fill: #373737"
      />
      <path
        d="M266.84,218.67s2.52,21.57.32,59.21c-3.37,57.79-14.08,134.72-14.08,134.72l-12.46-2.26s1.59-115.08-.08-146.84c0,0-18.52-15.24-18.52-26.47,0-4.16,2.33-19.64,2.33-19.64Z"
        style="fill: #a3ceff"
      />
      <path
        d="M266.84,218.67s2.52,21.57.32,59.21c-3.37,57.79-14.08,134.72-14.08,134.72l-12.46-2.26s1.59-115.08-.08-146.84c0,0-18.52-15.24-18.52-26.47,0-4.16,2.33-19.64,2.33-19.64Z"
        style="fill: #fff; opacity: 0.2; isolation: isolate"
      />
      <path
        d="M227.94,151.49s27.51-1.29,48,3.88c0,0-7.57,44.51-7.22,70.42l-47.35-1.94S220.79,178.24,227.94,151.49Z"
        style="fill: #fff"
      />
      <path
        d="M275.94,155.37s-1.4,8.25-3,19.71c-.32,2.3-.64,4.74-1,7.26-.37,3-.75,6.13-1.1,9.31-.63,5.71-1.19,11.61-1.59,17.29-.42,6-.66,11.79-.59,16.86l-47.35-2s-.59-45.61,6.56-72.35C227.94,151.5,255.45,150.2,275.94,155.37Z"
        style="fill: #fff; opacity: 0.8; isolation: isolate"
      />
      <ellipse
        cx="242.37"
        cy="184.26"
        rx="15.95"
        ry="11.74"
        transform="translate(51.23 421.25) rotate(-88.36)"
        style="fill: #1d4ed8"
      />
      <path
        d="M235.13,169.2l20.8,18.13a.76.76,0,0,1-.18,1.24l-20.21,6.65c-.35.11-.7-.21-.71-.65l-.58-24.78C234.24,169.22,234.75,168.88,235.13,169.2Z"
        style="fill: #1d4ed8"
      />
      <path
        d="M233.45,171.8l.58,24.77c0,.45.36.77.7.65L255,190.58a.77.77,0,0,0,.17-1.25l-.45-.39-19.13,6.28c-.35.12-.69-.2-.7-.65l-.56-23.39C233.92,170.9,233.43,171.25,233.45,171.8Z"
        style="fill: #1d4ed8"
      />
      <path
        d="M235.13,169.2l20.8,18.13a.76.76,0,0,1-.18,1.24l-20.21,6.65c-.35.11-.7-.21-.71-.65l-.58-24.78C234.24,169.22,234.75,168.88,235.13,169.2Z"
        style="fill: #fff; opacity: 0.6000000000000001; isolation: isolate"
      />
      <path
        d="M230.42,155.81c0,2.84,1.84,5.14,4.12,5.14s4.11-2.3,4.11-5.14-1.84-5.15-4.11-5.15S230.42,153,230.42,155.81Z"
        style="fill: #1d4ed8"
      />
      <path
        d="M231.05,155.81c0,3.47,2.25,6.28,5,6.28s5-2.81,5-6.28-2.25-6.28-5-6.28S231.05,152.34,231.05,155.81Z"
        style="fill: #373737"
      />
      <path
        d="M233.24,155.81c0,2.1,1.36,3.8,3,3.8s3-1.7,3-3.8-1.36-3.8-3-3.8S233.24,153.71,233.24,155.81Z"
        style="opacity: 0.2; isolation: isolate"
      />
      <path
        d="M259.43,154.78s3.84-6.61-3.15-7.13l-1.57-3.26a10,10,0,0,1,5.17,2.09,10.27,10.27,0,0,1,3.95,10.18Z"
        style="fill: #1d4ed8"
      />
      <path
        d="M254.71,144.39l.18.38,1.38,2.89c7,.51,3.15,7.13,3.15,7.13l.27.12,4.14,1.76a10.28,10.28,0,0,0-3.95-10.19A10,10,0,0,0,254.71,144.39Z"
        style="opacity: 0.2; isolation: isolate"
      />
      <path
        d="M259.42,154.79l.27.12a6.64,6.64,0,0,0,.19-7.25,8.11,8.11,0,0,0-5-2.89l1.38,2.89C263.27,148.17,259.42,154.79,259.42,154.79Z"
        style="opacity: 0.2; isolation: isolate"
      />
      <path
        d="M259.88,153.31c-3.95,3.58-13.63,2.26-13.63,2.26s-6-1.66-4.77-3.54c3.56-.59,5.28-2.25,6-4.38a10.43,10.43,0,0,0,.36-4.06c-.06-.75-.17-1.52-.3-2.27l12-8.86C257.93,138.31,256,149.07,259.88,153.31Z"
        style="fill: #ffb573"
      />
      <path
        d="M256.74,138.09c-.48,7.18-6.38,9.16-9.26,9.56a10.43,10.43,0,0,0,.36-4.06Z"
        style="opacity: 0.2; isolation: isolate"
      />
      <path
        d="M236.65,115.62s-2,11.13,3.82,15.58,6.37-16.34,6.37-16.34Z"
        style="fill: #373737"
      />
      <path
        d="M236.65,115.62s-2,11.13,3.82,15.58,6.37-16.34,6.37-16.34Z"
        style="fill: #fff; opacity: 0.30000000000000004"
      />
      <path
        d="M257.45,140.53a10.14,10.14,0,0,1-11.75,3.62,11.27,11.27,0,0,1-6.3-5.42,11.91,11.91,0,0,1-.51-1.08c-2.74-6.91-3.35-18.87,4-23.15a11,11,0,0,1,16.57,8.72C260.12,131.22,260.89,135.9,257.45,140.53Z"
        style="fill: #ffb573"
      />
      <path
        d="M247.7,127.18a1,1,0,0,1-.6,1.28c-.43.06-.84-.42-.94-1.07s.18-1.22.6-1.28S247.6,126.52,247.7,127.18Z"
        style="fill: #373737"
      />
      <path
        d="M240.38,128.23c.14.63-.18,1.22-.6,1.28s-.84-.42-.94-1.07.18-1.22.6-1.28S240.29,127.61,240.38,128.23Z"
        style="fill: #373737"
      />
      <path
        d="M242.75,128.21a22.86,22.86,0,0,1-2.3,6,3.78,3.78,0,0,0,3.2.14Z"
        style="fill: #de5753"
      />
      <path
        d="M249.63,124.48a.42.42,0,0,1-.39-.09,3.1,3.1,0,0,0-2.62-.93.37.37,0,0,1-.45-.29.37.37,0,0,1,.29-.45h0a3.78,3.78,0,0,1,3.31,1.12.37.37,0,0,1,0,.54h0A.54.54,0,0,1,249.63,124.48Z"
        style="fill: #373737"
      />
      <path
        d="M236.87,126.16a.4.4,0,0,1-.22,0,.38.38,0,0,1-.25-.47h0a3.82,3.82,0,0,1,2.43-2.53.4.4,0,0,1,.47.27h0a.4.4,0,0,1-.27.47h0a3.06,3.06,0,0,0-1.89,2A.43.43,0,0,1,236.87,126.16Z"
        style="fill: #373737"
      />
      <path
        d="M262.67,128.16a23.58,23.58,0,0,1-4.52,11.07c1.8-3.39,1.47-10.1.35-10.3s-1.06,1.09-1.06,1.09c-2.45-1.62-4.57-6.05-3.71-9.13a2.64,2.64,0,0,0-1.64-3.18l.1-3.57,9.18.25a8.57,8.57,0,0,1,1,2.21,9.46,9.46,0,0,1,.27,1A28.2,28.2,0,0,1,262.67,128.16Z"
        style="fill: #373737"
      />
      <path
        d="M243.3,136.35a20.73,20.73,0,0,1,1.13,2.73l.51-.08c2.33-.4,3.28-1.35,3.63-2.29a3,3,0,0,0,.13-1.43,2.85,2.85,0,0,0-.2-.8,11.1,11.1,0,0,1-4.41,1.72C243.61,136.31,243.3,136.35,243.3,136.35Z"
        style="fill: #373737"
      />
      <path
        d="M244.09,136.2l.35.8c2.2-.38,3.69-.94,4.26-1.72a2.85,2.85,0,0,0-.2-.8A11.1,11.1,0,0,1,244.09,136.2Z"
        style="fill: #fff"
      />
      <path
        d="M244.94,139c2.33-.4,3.28-1.35,3.63-2.29a7.72,7.72,0,0,0-2.5,1A2.85,2.85,0,0,0,244.94,139Z"
        style="fill: #de5753"
      />
      <path
        d="M262.77,117a3.24,3.24,0,0,1-.12.62,6.12,6.12,0,0,1-1.55,2.83l-9-2.74s-7.92,4.69-13.64,1.14-1.32-10.71-1.32-10.71a7.21,7.21,0,0,0,4.83,1.24c2.75-.33,8.7-3.19,14.24-1.62C260.4,109,263.32,113.19,262.77,117Z"
        style="fill: #373737"
      />
      <path
        d="M262.67,128.16a23.58,23.58,0,0,1-4.52,11.07c1.8-3.39,1.47-10.1.35-10.3s-1.06,1.09-1.06,1.09c-2.45-1.62-4.57-6.05-3.71-9.13a2.64,2.64,0,0,0-1.64-3.18s6.27-4.58,10.29-1.11a3.73,3.73,0,0,1,.39.4,3.24,3.24,0,0,1-.12.62A28.2,28.2,0,0,1,262.67,128.16Z"
        style="fill: #373737"
      />
      <path
        d="M263.85,129.24a7.64,7.64,0,0,1-3.78,4.45c-2.4,1.2-4.11-.82-3.88-3.35.22-2.24,1.71-5.65,4.33-5.78S264.59,126.87,263.85,129.24Z"
        style="fill: #ffb573"
      />
      <path
        d="M254.65,158.29c0,3.47,2.25,6.28,5,6.28s5-2.81,5-6.28-2.25-6.28-5-6.28S254.65,154.82,254.65,158.29Z"
        style="fill: #373737"
      />
      <path
        d="M256.89,158.27c0,2.85,1.84,5.15,4.11,5.15s4.12-2.3,4.12-5.15-1.84-5.14-4.12-5.14S256.89,155.43,256.89,158.27Z"
        style="fill: #373737"
      />
      <path
        d="M272,182.34c-.37,3-.75,6.13-1.1,9.31-.63,5.71-1.19,11.61-1.59,17.29-.35-.23-.72-.48-1.1-.75-14.61-10.49-1.92-35.14-1.92-35.14Z"
        style="opacity: 0.2; isolation: isolate"
      />
      <path
        d="M278.8,174.37s-5.18,36.66-10.58,38.45S238.78,215,238.78,215a8.47,8.47,0,0,1-3.65.71c-2.16-.05-8.34-.3-9.84-1.52s-4.74-5.67-3.7-7,18.63-.73,18.95.06,2,1.95,2,1.95,18-3.45,19.83-4.2,5.84-31.94,5.84-31.94Z"
        style="fill: #ffb573"
      />
      <path
        d="M274.6,155c-7.88-.46-9.91,31.92-9.91,31.92l15.21,2S286.59,155.74,274.6,155Z"
        style="fill: #fff"
      />
      <path
        d="M274.6,155c-7.88-.46-9.91,31.92-9.91,31.92l15.21,2S286.59,155.74,274.6,155Z"
        style="fill: #fff; opacity: 0.8; isolation: isolate"
      />
      <path
        d="M187,205.18v2.65c0,.79,1.37,1.35,2.15,1.35H251c.79,0,2.05-.56,2.05-1.35v-2.65Z"
        style="fill: #373737"
      />
      <path
        d="M187,205.18v2.65c0,.79,1.37,1.35,2.15,1.35H251c.79,0,2.05-.56,2.05-1.35v-2.65Z"
        style="fill: #fff; opacity: 0.1; isolation: isolate"
      />
      <path
        d="M187,205.18v2.65c0,.79,1.37,1.35,2.15,1.35h40.76c.79,0,2.09-.56,2.09-1.35v-2.65Z"
        style="opacity: 0.2; isolation: isolate"
      />
      <path
        d="M177.12,172.7l7.36,33.47a2.61,2.61,0,0,0,2.39,2h40.18a1.74,1.74,0,0,0,1.51-2.24l-7.34-33.12a2.3,2.3,0,0,0-2.39-1.64H178.64C177.56,171.18,176.89,171.61,177.12,172.7Z"
        style="fill: #373737"
      />
      <path
        d="M177.12,172.7l7.36,33.47a2.61,2.61,0,0,0,2.39,2h40.18a1.74,1.74,0,0,0,1.51-2.24l-7.34-33.12a2.3,2.3,0,0,0-2.39-1.64H178.64C177.56,171.18,176.89,171.61,177.12,172.7Z"
        style="fill: #fff; opacity: 0.1; isolation: isolate"
      />
      <path
        d="M177.12,172.7l7.36,33.47a2.61,2.61,0,0,0,2.39,2h38.82a1.75,1.75,0,0,0,1.52-2.24l-7.36-33.12a2.3,2.3,0,0,0-2.39-1.64H178.64C177.56,171.18,176.89,171.61,177.12,172.7Z"
        style="fill: #fff; opacity: 0.2; isolation: isolate"
      />
      <path
        d="M200.76,194.15c-1.87,0-3.79-2-4.28-4.48s.64-4.49,2.52-4.49a2.91,2.91,0,0,1,1,.2,5.74,5.74,0,0,0,3.19,4.09,1.46,1.46,0,0,1,.05.2C203.77,192.14,202.64,194.15,200.76,194.15Z"
        style="opacity: 0.2; isolation: isolate"
      />
    </g>
  </g>
</svg>
